HIERARCHY
ROOT Hips
{
 OFFSET 0.000000 0.000000 0.000000
 CHANNELS 6 Xposition Yposition Zposition Yrotation Xrotation Zrotation
 JOINT Chest
 {
  OFFSET 0.000000 9.585900 0.002600
  CHANNELS 3 Yrotation Xrotation Zrotation
  JOINT Chest2
  {
   OFFSET 0.000000 9.601200 -0.005300
   CHANNELS 3 Yrotation Xrotation Zrotation
   JOINT Chest3
   {
    OFFSET 0.000000 9.561800 0.000000
    CHANNELS 3 Yrotation Xrotation Zrotation
    JOINT Chest4
    {
     OFFSET 0.000000 9.552100 0.000000
     CHANNELS 3 Yrotation Xrotation Zrotation
     JOINT Neck
     {
      OFFSET 0.000000 14.453000 0.000000
      CHANNELS 3 Yrotation Xrotation Zrotation
      JOINT Head
      {
       OFFSET 0.000000 8.936500 -0.011300
       CHANNELS 3 Yrotation Xrotation Zrotation
       End Site
       {
        OFFSET 0.000000 17.073600 -0.006000
       }
      }
     }
     JOINT RightCollar
     {
      OFFSET -2.921100 9.558500 0.000000
      CHANNELS 3 Yrotation Xrotation Zrotation
      JOINT RightShoulder
      {
       OFFSET -13.519700 0.000000 0.000000
       CHANNELS 3 Yrotation Xrotation Zrotation
       JOINT RightElbow
       {
        OFFSET 0.000000 -29.696600 0.000000
        CHANNELS 3 Yrotation Xrotation Zrotation
        JOINT RightWrist
        {
         OFFSET 0.000000 -24.004700 0.000000
         CHANNELS 3 Yrotation Xrotation Zrotation
         End Site
         {
          OFFSET 0.000000 -17.728500 0.000000
         }
        }
       }
      }
     }
     JOINT LeftCollar
     {
      OFFSET 2.921100 9.558500 0.000000
      CHANNELS 3 Yrotation Xrotation Zrotation
      JOINT LeftShoulder
      {
       OFFSET 13.519700 0.000000 0.000000
       CHANNELS 3 Yrotation Xrotation Zrotation
       JOINT LeftElbow
       {
        OFFSET 0.000000 -29.696600 0.000000
        CHANNELS 3 Yrotation Xrotation Zrotation
        JOINT LeftWrist
        {
         OFFSET 0.000000 -24.004700 0.000000
         CHANNELS 3 Yrotation Xrotation Zrotation
         End Site
         {
          OFFSET 0.000000 -17.728500 0.000000
         }
        }
       }
      }
     }
    }
   }
  }
 }
 JOINT RightHip
 {
  OFFSET -7.771700 -0.012900 -0.001300
  CHANNELS 3 Yrotation Xrotation Zrotation
  JOINT RightKnee
  {
   OFFSET 0.000000 -40.869800 0.001200
   CHANNELS 3 Yrotation Xrotation Zrotation
   JOINT RightAnkle
   {
    OFFSET 0.000000 -39.717900 0.002100
    CHANNELS 3 Yrotation Xrotation Zrotation
    JOINT RightToe
    {
     OFFSET 0.000000 -4.965400 11.033500
     CHANNELS 3 Yrotation Xrotation Zrotation
     End Site
     {
      OFFSET 0.000000 -1.423100 5.872300
     }
    }
   }
  }
 }
 JOINT LeftHip
 {
  OFFSET 7.771700 -0.012900 -0.001300
  CHANNELS 3 Yrotation Xrotation Zrotation
  JOINT LeftKnee
  {
   OFFSET 0.000000 -40.869800 0.001200
   CHANNELS 3 Yrotation Xrotation Zrotation
   JOINT LeftAnkle
   {
    OFFSET 0.000000 -39.717900 0.002100
    CHANNELS 3 Yrotation Xrotation Zrotation
    JOINT LeftToe
    {
     OFFSET 0.000000 -4.965400 11.033500
     CHANNELS 3 Yrotation Xrotation Zrotation
     End Site
     {
      OFFSET 0.000000 -1.423100 5.872300
     }
    }
   }
  }
 }
}
MOTION
Frames: 5
Frame Time: 0.008333
-8.214831 51.049608 25.097811 178.232775 -33.178643 -8.571122 0.270031 13.322039 3.518581 0.026559 7.644893 2.001056 0.065704 9.581103 2.525441 0.032948 7.638918 2.003440 6.138123 20.937473 1.952140 6.193872 -3.262100 0.702247 0.206243 1.393093 -1.958018 -13.716305 -8.396883 6.896567 40.527150 -71.870591 -23.966261 13.387761 -3.483131 -15.979680 -9.910159 3.205187 -3.464815 6.291936 -1.354806 -2.011600 -72.578614 -66.910228 78.973333 7.468189 -15.261399 -3.572210 -12.312920 -31.099480 5.979407 24.904150 82.914177 21.369651 -1.025638 -13.592087 1.508891 -0.041950 -0.241973 -0.838187 -13.100965 -46.458147 12.846219 174.934843 77.778720 170.630051 -0.755231 -18.942492 0.338574 0.005895 -0.004711 -0.014460
-8.208029 51.048646 25.085086 178.222719 -33.162620 -8.539777 0.245162 13.344774 3.495229 0.033116 7.639053 2.003270 0.072225 9.577830 2.531066 0.038945 7.632533 2.005669 6.184678 20.944029 1.874903 6.263395 -3.251291 0.608337 0.208966 1.374785 -1.972482 -13.688827 -8.379610 6.905524 40.475168 -71.841831 -23.915061 13.390866 -3.476930 -15.967301 -9.905873 3.184899 -3.473135 6.353088 -1.350295 -1.996581 -72.589885 -66.962156 78.999805 7.467030 -15.253928 -3.618707 -12.417334 -30.895095 5.778147 25.019075 82.894281 21.538289 -0.919668 -14.214195 1.617108 -0.050968 0.130242 -0.858910 -13.087217 -46.472074 12.812769 174.794472 77.765510 170.501277 -0.767808 -18.949174 0.321123 0.005167 -0.010519 -0.017768
-8.195578 51.054553 25.072071 178.225453 -33.153350 -8.527780 0.211472 13.381852 3.486352 0.038894 7.632792 2.006076 0.084483 9.563315 2.528865 0.044086 7.632202 2.013561 6.202019 20.937777 1.822622 6.353653 -3.223494 0.490199 0.204412 1.364267 -1.958691 -13.657919 -8.343563 6.914110 40.432112 -71.808191 -23.845950 13.428530 -3.505874 -16.002301 -9.899401 3.183023 -3.453027 6.410360 -1.366121 -2.016531 -72.578159 -66.998092 78.984972 7.458430 -15.232961 -3.633469 -12.594117 -30.714893 5.607010 25.985199 82.869469 22.561398 -0.801382 -14.805442 1.517849 -0.040516 0.408681 -0.769217 -13.079128 -46.472283 12.792517 174.724235 77.760033 170.452927 -0.772650 -18.955870 0.300519 0.008155 -0.012477 -0.013084
-8.177534 51.069932 25.064552 178.226159 -33.116236 -8.524168 0.168633 13.434424 3.501042 0.057644 7.586410 1.993970 0.098298 9.531122 2.515736 0.046320 7.635263 2.020483 6.260581 20.960495 1.757010 6.401466 -3.218635 0.423907 0.196645 1.383077 -1.929631 -13.642794 -8.352281 6.900752 40.401150 -71.792776 -23.790043 13.433155 -3.512328 -15.992584 -9.903031 3.183498 -3.442527 6.459924 -1.379219 -2.023800 -72.552743 -67.016628 78.957506 7.435544 -15.159693 -3.593262 -12.787901 -30.608994 5.516287 27.064725 82.848255 23.681297 -0.734254 -15.315287 1.318668 -0.019000 0.605264 -0.611453 -13.100952 -46.496016 12.806833 174.655437 77.763841 170.406011 -0.785176 -18.942317 0.268899 0.014828 -0.027685 -0.006505
-8.145208 51.099829 25.072002 178.181576 -33.001413 -8.556595 0.185246 13.384027 3.577076 0.053486 7.603827 2.009186 0.111620 9.476129 2.498427 0.050190 7.616049 2.009003 6.315569 20.983270 1.698027 6.444328 -3.212658 0.364420 0.190212 1.388908 -1.921635 -13.635839 -8.338620 6.901299 40.478637 -71.800594 -23.861834 13.411692 -3.498272 -15.944568 -9.908628 3.180238 -3.438675 6.506794 -1.388540 -2.025416 -72.558156 -67.030752 78.933747 7.416753 -15.125012 -3.551797 -12.964900 -30.638543 5.591026 28.047219 82.845592 24.685847 -0.724050 -15.711936 1.089846 0.001970 0.728538 -0.426404 -13.180705 -46.582602 12.931011 174.390019 77.775929 170.184890 -0.819101 -18.914215 0.222580 0.014284 -0.045182 -0.009308
